<svg width="218" height="85" viewBox="0 0 218 85" fill="none" xmlns="http://www.w3.org/2000/svg">
<path d="M190.94 43.2038C190.94 43.7696 190.749 44.2455 190.369 44.6427C189.989 45.0398 189.511 45.2347 188.946 45.2347C188.382 45.2347 187.9 45.0361 187.501 44.6427C187.106 44.2492 186.907 43.7696 186.907 43.2038V28.4893C186.907 28.0958 186.738 27.7998 186.399 27.6012C186.06 27.4588 185.707 27.4738 185.338 27.6424C185.112 27.811 184.894 27.9609 184.679 28.0883C184.465 28.2157 184.247 28.3506 184.021 28.4893C183.539 28.7703 183.035 28.834 182.512 28.6804C181.989 28.5267 181.571 28.2082 181.259 27.7286C180.977 27.249 180.913 26.7506 181.067 26.2261C181.221 25.7052 181.541 25.3043 182.023 25.0195C183.75 24.034 185.349 22.7226 186.82 21.0889C188.322 19.4814 189.454 17.7765 190.218 15.9742C190.444 15.4384 190.813 15.0712 191.32 14.8763C191.828 14.6777 192.34 14.6927 192.848 14.9175C193.356 15.1424 193.717 15.5096 193.932 16.0154C194.143 16.5213 194.135 17.0309 193.909 17.5367C193.597 18.1849 193.258 18.8407 192.89 19.5039C192.521 20.1671 192.111 20.8079 191.659 21.4261C191.178 22.1605 190.937 22.9362 190.937 23.753V43.2038H190.94ZM196.671 25.1919C196.103 25.1919 195.633 25.0008 195.249 24.6223C194.865 24.2439 194.677 23.7718 194.677 23.206C194.677 22.6402 194.869 22.1643 195.249 21.7671C195.633 21.3737 196.103 21.1751 196.671 21.1751H212.892C213.456 21.1751 213.938 21.3737 214.337 21.7671C214.732 22.1605 214.931 22.6402 214.931 23.206C214.931 23.7718 214.732 24.2401 214.337 24.6223C213.942 25.0045 213.46 25.1919 212.892 25.1919H208.008C207.669 25.1919 207.383 25.3118 207.158 25.5516C206.932 25.7914 206.819 26.0799 206.819 26.4172V28.7441C206.819 29.0551 206.932 29.3361 207.158 29.5909C207.383 29.8457 207.666 29.9731 208.008 29.9731H210.894C211.458 29.9731 211.933 30.1642 212.316 30.5426C212.7 30.9211 212.888 31.3969 212.888 31.959C212.888 32.521 212.696 33.0007 212.316 33.3979C211.933 33.7913 211.458 33.9899 210.894 33.9899H208.008C207.669 33.9899 207.383 34.1023 207.158 34.3271C206.932 34.5519 206.819 34.833 206.819 35.1739V38.6399C206.819 38.9509 206.932 39.2245 207.158 39.4643C207.383 39.7041 207.666 39.824 208.008 39.824H214.122C214.687 39.824 215.161 40.0226 215.545 40.416C215.929 40.8095 216.117 41.2891 216.117 41.8549C216.117 42.4207 215.925 42.8553 215.545 43.2488C215.161 43.6422 214.687 43.8408 214.122 43.8408H195.482C194.914 43.8408 194.436 43.6422 194.037 43.2488C193.642 42.8553 193.443 42.3907 193.443 41.8549C193.443 41.2928 193.642 40.8132 194.037 40.416C194.432 40.0226 194.914 39.824 195.482 39.824H201.555C201.894 39.824 202.183 39.7041 202.424 39.4643C202.665 39.2245 202.785 38.9509 202.785 38.6399V35.1739C202.785 34.8367 202.665 34.5557 202.424 34.3271C202.183 34.1023 201.894 33.9899 201.555 33.9899H198.71C198.142 33.9899 197.664 33.7913 197.266 33.3979C196.87 33.0044 196.671 32.5248 196.671 31.959C196.671 31.3932 196.87 30.9248 197.266 30.5426C197.661 30.1604 198.142 29.9731 198.71 29.9731H201.555C201.894 29.9731 202.183 29.8457 202.424 29.5909C202.665 29.3361 202.785 29.0551 202.785 28.7441V26.4172C202.785 26.0799 202.665 25.7914 202.424 25.5516C202.183 25.3118 201.894 25.1919 201.555 25.1919H196.671ZM206.819 16.0379C206.819 16.5962 206.62 17.0646 206.225 17.4393C205.829 17.814 205.348 18.0051 204.78 18.0051C204.211 18.0051 203.741 17.8177 203.357 17.4393C202.974 17.0608 202.785 16.5962 202.785 16.0379V15.9967C202.785 15.4384 202.977 14.9663 203.357 14.5728C203.737 14.1794 204.211 13.9883 204.78 13.9883C205.348 13.9883 205.826 14.1831 206.225 14.5728C206.62 14.9625 206.819 15.4384 206.819 15.9967V16.0379Z" fill="#085CA8"/>
<path d="M83.9554 33.0196L85.8819 47.588C87.3493 58.6829 79.4778 68.8973 68.3364 70.3549C57.1951 71.8162 46.938 63.9775 45.4743 52.8825L43.5365 38.2242C43.1113 35.0092 45.384 32.0603 48.6124 31.6369C51.8408 31.2135 54.802 33.4767 55.2272 36.6916L57.165 51.35C57.7821 56.0225 62.1016 59.3274 66.7975 58.7092C71.4933 58.0909 74.8045 53.7931 74.1874 49.1168L72.2609 34.5484C71.8357 31.3334 74.1084 28.3845 77.3368 27.9611C80.5652 27.5377 83.5264 29.8009 83.9516 33.0158L83.9554 33.0196Z" fill="#D52229"/>
<path d="M175.505 56.6742L172.897 70.8604C172.31 74.0491 169.24 76.1624 166.034 75.5779C164.096 75.2257 162.557 73.9592 161.771 72.3105C158.652 73.3297 155.243 73.607 151.788 72.9812C140.734 70.9653 133.389 60.3687 135.413 49.3637C137.438 38.3587 148.075 31.0408 159.129 33.0567C170.184 35.0726 177.529 45.6654 175.505 56.6742ZM163.904 54.5571C164.758 49.9183 161.666 45.4556 157.007 44.6087C152.349 43.7582 147.868 46.842 147.017 51.477C146.163 56.1121 149.26 60.5786 153.914 61.4254C158.569 62.276 163.05 59.1922 163.904 54.5571Z" fill="#D52229"/>
<path d="M129.701 62.5397C129.701 73.7321 120.562 82.8336 109.323 82.8336C105.816 82.8336 102.512 81.9456 99.6263 80.3868C98.5539 81.8669 96.8156 82.8336 94.8439 82.8336C91.5854 82.8336 88.9478 80.2032 88.9478 76.962V6.74658C88.9478 3.50541 91.5892 0.875 94.8439 0.875C98.0986 0.875 100.74 3.50541 100.74 6.74658V44.1419C103.351 42.9278 106.26 42.2459 109.323 42.2459C120.558 42.2459 129.701 51.3474 129.701 62.5397ZM117.905 62.5397C117.905 57.826 114.056 53.9928 109.323 53.9928C104.589 53.9928 100.74 57.826 100.74 62.5397C100.74 67.2535 104.589 71.0867 109.323 71.0867C114.056 71.0867 117.905 67.2535 117.905 62.5397Z" fill="#085CA8"/>
<path d="M195.097 67.5934C195.097 68.1592 194.992 68.6838 194.777 69.1634C194.563 69.643 194.273 70.0702 193.908 70.4374C193.539 70.8046 193.107 71.0968 192.614 71.3067C192.117 71.5202 191.601 71.6252 191.063 71.6252H186.646C186.078 71.6252 185.555 71.5202 185.073 71.3067C184.592 71.0931 184.166 70.8046 183.801 70.4374C183.433 70.0702 183.15 69.6467 182.951 69.1634C182.752 68.6838 182.654 68.1592 182.654 67.5934V62.756C182.654 61.6543 183.038 60.7138 183.801 59.9345C184.565 59.1551 185.513 58.7691 186.646 58.7691H191.063C191.601 58.7691 192.117 58.8741 192.614 59.0876C193.11 59.3012 193.539 59.5822 193.908 59.9345C194.277 60.2867 194.566 60.7138 194.777 61.2084C194.988 61.7031 195.097 62.2201 195.097 62.756V67.5934ZM191.063 64.0112C191.063 63.7002 190.951 63.4192 190.729 63.1644C190.503 62.9096 190.224 62.7822 189.886 62.7822H187.869C187.56 62.7822 187.286 62.9096 187.049 63.1644C186.812 63.4192 186.691 63.7002 186.691 64.0112V66.4206C186.691 66.7578 186.812 67.0426 187.049 67.2674C187.286 67.4922 187.56 67.6046 187.869 67.6046H189.886C190.221 67.6046 190.503 67.4922 190.729 67.2674C190.954 67.0426 191.063 66.7615 191.063 66.4206V64.0112ZM203.887 68.7887C203.149 68.7887 202.577 69.006 202.167 69.4444C201.757 69.8828 201.55 70.4523 201.55 71.1568V73.5661C201.55 74.664 201.847 75.5108 202.442 76.1029C203.036 76.6949 203.887 76.9909 204.989 76.9909H215.521C216.085 76.9909 216.563 77.182 216.943 77.5604C217.323 77.9426 217.515 78.4148 217.515 78.9768C217.515 79.5389 217.323 80.0185 216.943 80.4157C216.559 80.8091 216.085 81.0077 215.521 81.0077H203.164C202.4 81.0077 201.67 80.8578 200.978 80.5618C200.286 80.2658 199.684 79.8649 199.172 79.3553C198.664 78.8494 198.258 78.2499 197.96 77.5567C197.663 76.8673 197.516 76.1403 197.516 75.3797V56.9856C197.516 56.4497 197.622 55.9364 197.836 55.4418C198.047 54.9472 198.337 54.52 198.705 54.1528C199.074 53.7856 199.496 53.4971 199.977 53.2872C200.459 53.0774 200.982 52.9688 201.55 52.9688H212.251C212.789 52.9688 213.305 53.0737 213.801 53.2872C214.298 53.4971 214.727 53.7893 215.096 54.1528C215.464 54.52 215.754 54.9509 215.965 55.4418C216.176 55.9364 216.285 56.4497 216.285 56.9856V64.7644C216.285 65.3302 216.179 65.851 215.965 66.3306C215.754 66.8102 215.461 67.2337 215.096 67.6009C214.731 67.9681 214.294 68.2566 213.801 68.4664C213.305 68.6763 212.789 68.7849 212.251 68.7849H203.887V68.7887ZM204.015 64.7719C204.27 64.7719 204.504 64.6744 204.714 64.4758C204.925 64.2773 205.034 64.0374 205.034 63.7564V58.0047C205.034 57.7237 204.929 57.4839 204.714 57.2853C204.504 57.0867 204.27 56.9893 204.015 56.9893H202.57C202.288 56.9893 202.047 57.0867 201.847 57.2853C201.648 57.4839 201.55 57.7237 201.55 58.0047V63.7564C201.55 64.0374 201.648 64.2773 201.847 64.4758C202.047 64.6744 202.288 64.7719 202.57 64.7719H204.015ZM211.247 64.7719C211.525 64.7719 211.762 64.6744 211.958 64.4758C212.153 64.2773 212.251 64.0374 212.251 63.7564V58.0047C212.251 57.7237 212.153 57.4839 211.958 57.2853C211.762 57.0867 211.525 56.9893 211.247 56.9893H210.073C209.794 56.9893 209.553 57.0867 209.361 57.2853C209.166 57.4839 209.068 57.7237 209.068 58.0047V63.7564C209.068 64.0374 209.166 64.2773 209.361 64.4758C209.557 64.6744 209.794 64.7719 210.073 64.7719H211.247Z" fill="#085CA8"/>
<path d="M44.1988 74.5924C44.624 77.8074 42.3475 80.7563 39.1191 81.1797L10.4022 84.9417C8.03175 85.2527 5.7064 84.1061 4.51739 82.0415C3.32838 79.9731 3.50899 77.3989 4.97644 75.5179L21.1447 54.8006L6.66589 56.6966C3.4375 57.12 0.476261 54.8568 0.0510761 51.6419C-0.374108 48.427 1.90232 45.4743 5.12695 45.0546L33.8438 41.2926C36.2143 40.9816 38.5397 42.1282 39.7287 44.1966C40.9177 46.2649 40.7371 48.8391 39.2659 50.7201L23.0976 71.4374L37.5727 69.5414C40.8011 69.118 43.7623 71.3812 44.1875 74.5962L44.1988 74.5924Z" fill="#085CA8"/>
</svg>
